<?xml version="1.0" encoding="utf-8"?>
<!-- Generator: Adobe Illustrator 24.2.3, SVG Export Plug-In . SVG Version: 6.00 Build 0)  -->
<svg version="1.1" id="Layer_1" xmlns="http://www.w3.org/2000/svg" xmlns:xlink="http://www.w3.org/1999/xlink" x="0px" y="0px"
	 viewBox="0 0 64 60" style="enable-background:new 0 0 64 60;" xml:space="preserve">
<style type="text/css">
	.st0{fill:#FFFFFF;}
</style>
<path class="st0" d="M51.6,0c-2,0-37,0-39.3,0L0,16.8l32.1,42.3L64,16.8L51.6,0z M17.6,18.7l9.1,27l-20.5-27H17.6z M21.5,18.7h21
	L32.1,50.2L21.5,18.7z M46.4,18.7h11.5L37.5,45.9L46.4,18.7z M49.8,3.7L58,15H46.4L42.8,3.7H49.8z M38.8,3.7L42.5,15h-21l3.7-11.2
	h13.6V3.7z M14.3,3.7h7L17.6,15H6L14.3,3.7z"/>
</svg>
