<?xml version="1.0" encoding="utf-8"?>
<!-- Generator: Adobe Illustrator 24.2.3, SVG Export Plug-In . SVG Version: 6.00 Build 0)  -->
<svg version="1.1" id="Layer_1" xmlns="http://www.w3.org/2000/svg" xmlns:xlink="http://www.w3.org/1999/xlink" x="0px" y="0px"
	 viewBox="0 0 60 26" style="enable-background:new 0 0 60 26;" xml:space="preserve">
<style type="text/css">
	.st0{fill-rule:evenodd;clip-rule:evenodd;fill:#383838;}
</style>
<g>
	<g>
		<path class="st0" d="M45.6,8.9c0.8-0.5,1.3-0.8,1.2-1v0c-0.1-0.1-0.6,0-1.5,0.2c-0.9,0.2-2.3,0.6-3.9,1c-1.7,0.4-3.7,0.8-6,1.1
			c-2.3,0.3-4.8,0.4-7.6,0.2c-1.6-0.1-3.3-0.3-5-0.6c-3.3-0.6-6.3-1.5-9-2.5c-2.7-1.1-5-2.3-6.9-3.4C5.2,2.9,3.7,1.8,2.7,1.1
			C2.2,0.8,1.8,0.5,1.5,0.3S1,0.1,1,0.2C0.9,0.2,1,0.4,1.2,0.7C1.4,1,1.7,1.4,2.1,1.8C3,2.8,4.3,4,6.1,5.4c1.8,1.4,4.2,2.8,6.9,4
			c2.8,1.2,6,2.3,9.4,2.9c1.8,0.3,3.6,0.5,5.3,0.5c2.9,0.1,5.6-0.1,7.9-0.6c2.4-0.4,4.4-1,6.1-1.6C43.5,10,44.8,9.4,45.6,8.9z
			 M50.2,2.8c-2.7-0.6-5.1-1.1-7.1-1.5c-2-0.4-3.7-0.6-4.8-0.7c-1.1-0.1-1.8-0.1-1.8,0.1c0,0.2,0.5,0.4,1.6,0.7
			c1.1,0.3,2.6,0.7,4.6,1.1c1.9,0.4,4.3,0.8,6.9,1.3c2.6,0.4,5.5,0.9,8.6,1.4c-0.8,0.5-1.5,1-2.2,1.5c-2.7,1.9-4.9,4-6.8,6.1
			c-1.9,2.1-3.4,4.1-4.7,5.9c-2.8,4.3-4.3,7-4.1,7.2c0.3,0.2,2.4-2.2,5.5-6.2c1.3-1.8,2.9-4,4.8-6.3c1.8-2.3,3.9-4.6,6.3-6.8
			c0.7-0.6,1.3-1.1,2-1.7C55.9,4.1,52.9,3.4,50.2,2.8z"/>
	</g>
</g>
</svg>
