<?xml version="1.0" encoding="utf-8"?>
<!-- Generator: Adobe Illustrator 24.2.3, SVG Export Plug-In . SVG Version: 6.00 Build 0)  -->
<svg version="1.1" id="Layer_1" xmlns="http://www.w3.org/2000/svg" xmlns:xlink="http://www.w3.org/1999/xlink" x="0px" y="0px"
	 viewBox="0 0 60 26" style="enable-background:new 0 0 60 26;" xml:space="preserve">
<style type="text/css">
	.st0{fill-rule:evenodd;clip-rule:evenodd;fill:#383838;}
</style>
<g>
	<g>
		<path class="st0" d="M45.3,17.8c0.9,0.2,1.5,0.4,1.5,0.2v0c0.1-0.1-0.4-0.5-1.2-1c-0.8-0.5-2.1-1.1-3.8-1.7
			c-1.7-0.6-3.7-1.2-6.1-1.6c-2.4-0.4-5.1-0.7-7.9-0.6c-1.7,0.1-3.5,0.2-5.3,0.5c-3.5,0.6-6.7,1.6-9.4,2.9c-2.8,1.2-5.1,2.7-6.9,4
			c-1.8,1.4-3.2,2.6-4,3.6c-0.4,0.5-0.7,0.9-0.9,1.1C1,25.6,0.9,25.8,1,25.8c0.1,0.1,0.2,0,0.5-0.2c0.3-0.2,0.7-0.4,1.2-0.8
			c1-0.7,2.5-1.7,4.4-2.9c1.9-1.1,4.2-2.3,6.9-3.4c2.7-1.1,5.7-2,9-2.5c1.7-0.3,3.4-0.5,5-0.6c2.7-0.1,5.3,0,7.6,0.2
			c2.3,0.3,4.3,0.7,6,1.1C43,17.2,44.4,17.6,45.3,17.8z M57,19.5c-2.4-2.1-4.5-4.5-6.3-6.8c-1.8-2.3-3.4-4.4-4.8-6.3
			c-3.1-4-5.2-6.4-5.5-6.2c-0.3,0.2,1.3,3,4.1,7.2c1.2,1.8,2.8,3.8,4.7,5.9c1.9,2.1,4.1,4.2,6.8,6.1c0.7,0.5,1.5,1,2.2,1.5
			c-3.1,0.5-6,0.9-8.6,1.4c-2.6,0.4-4.9,0.9-6.9,1.3c-1.9,0.4-3.5,0.8-4.6,1.1c-1.1,0.3-1.6,0.6-1.6,0.7c0,0.2,0.7,0.2,1.8,0.1
			c1.1-0.1,2.8-0.4,4.8-0.7c2-0.4,4.4-0.9,7.1-1.5c2.7-0.6,5.7-1.3,8.8-2.1C58.3,20.6,57.7,20,57,19.5z"/>
	</g>
</g>
</svg>
